<?xml version="1.0" encoding="utf-8"?>
<!-- Generator: Adobe Illustrator 23.0.4, SVG Export Plug-In . SVG Version: 6.00 Build 0)  -->
<svg version="1.1" id="Livello_1" xmlns="http://www.w3.org/2000/svg" xmlns:xlink="http://www.w3.org/1999/xlink" x="0px" y="0px"
	 viewBox="0 0 71.7 56.7" style="enable-background:new 0 0 71.7 56.7;" xml:space="preserve">
<style type="text/css">
	.st0{fill:#FFFFFF;}
</style>
<g>
	<path class="st0" d="M44.2,6.8c0.9,0,1.9,0.1,2.8,0.2c-3.3-1.8-7.2-2.8-11.2-2.8C22.5,4.2,11.7,15,11.7,28.3c0,0.7,0,1.3,0.1,1.9
		c1.2,8.8,8.5,15.6,17.2,15.6c9.1,0,16.6-7.4,17.3-16.8l-7.3,0c-0.7,1.4-2.1,2.3-3.7,2.3c-2.2,0-4.1-1.8-4.2-4l-3.2,0c0,0,0,0,0,0
		h-3.3c0-0.1,0-0.1,0-0.2C24.7,16,33.5,6.8,44.2,6.8"/>
	<path class="st0" d="M59.9,28.3L59.9,28.3c0-4.4-1.2-8.5-3.3-12.1c-2.7-4.1-7.6-6.2-12.4-6.2c-8.9,0-16.2,7.7-16.2,17.2
		c0,0.1,0,0.1,0,0.2l3.2,0c0-0.1,0-0.1,0-0.2c0-2.3,1.9-4.2,4.2-4.2c1.8,0,3.3,1.1,3.9,2.7l10.4,0l0,1.7c0,0,0,0.1,0,0.1
		c0,11.9-9.3,21.6-20.7,21.6c-2.7,0-5.3-0.5-7.6-1.5c4,3,9,4.8,14.5,4.8C49.2,52.5,59.9,41.7,59.9,28.3"/>
</g>
</svg>
